<svg class="w-full h-full" version="1.0" xmlns="http://www.w3.org/2000/svg"
              width="100pt" height="100pt" viewBox="0 0 154.000000 162.000000"
              preserveAspectRatio="xMidYMid meet">
        <g transform="translate(0.000000,162.000000) scale(0.050000,-0.050000)"
        fill="#B45309" stroke="none">
        <path d="M1802 2973 c-24 -29 -10 -53 31 -53 30 0 37 52 9 69 -9 6 -27 -1 -40
        -16z"/>
        <path d="M1118 2882 c-117 -118 -52 -293 116 -316 177 -24 276 187 148 316
        -44 43 -78 58 -132 58 -54 0 -88 -15 -132 -58z"/>
        <path d="M1987 2908 c-21 -54 46 -104 86 -64 41 41 22 96 -33 96 -23 0 -47
        -14 -53 -32z"/>
        <path d="M669 2751 c-64 -65 -64 -150 1 -211 120 -113 307 1 249 153 -43 114
        -166 142 -250 58z"/>
        <path d="M1633 2759 c-133 -105 -10 -311 151 -255 104 37 132 176 50 253 -59
        54 -133 55 -201 2z"/>
        <path d="M2264 2769 c-53 -38 -57 -111 -7 -156 48 -44 94 -42 143 7 96 96 -23
        227 -136 149z"/>
        <path d="M360 2460 c-96 -96 23 -227 136 -149 53 38 57 111 7 156 -48 44 -94
        42 -143 -7z"/>
        <path d="M2000 2460 c-96 -96 23 -227 136 -149 53 38 57 111 7 156 -48 44 -94
        42 -143 -7z"/>
        <path d="M2482 2465 c-109 -91 -44 -272 98 -272 92 0 169 88 152 175 -15 77
        -79 132 -152 132 -31 0 -75 -16 -98 -35z"/>
        <path d="M967 2370 c-16 -41 6 -90 40 -90 49 0 82 55 53 90 -14 17 -38 30 -53
        30 -16 0 -33 -13 -40 -30z"/>
        <path d="M651 2229 c-63 -64 -21 -169 68 -169 107 0 158 101 84 167 -46 42
        -111 42 -152 2z"/>
        <path d="M187 2128 c-7 -17 0 -44 16 -60 38 -38 110 9 91 59 -16 42 -91 43
        -107 1z"/>
        <path d="M2213 2147 c-23 -24 -14 -82 15 -93 42 -16 101 34 86 73 -13 33 -75
        45 -101 20z"/>
        <path d="M2590 2036 c-65 -37 -89 -81 -89 -163 -2 -204 280 -263 358 -74 69
        164 -115 325 -269 237z"/>
        <path d="M410 1957 c-102 -56 -121 -168 -41 -248 62 -62 133 -62 203 -2 135
        115 -8 334 -162 250z"/>
        <path d="M2482 1505 c-112 -93 -48 -265 98 -265 60 0 87 12 120 55 78 99 7
        245 -120 245 -31 0 -75 -16 -98 -35z"/>
        <path d="M238 1462 c-93 -94 -70 -238 49 -295 191 -91 358 129 221 291 -72 86
        -186 87 -270 4z"/>
        <path d="M713 1347 c-24 -25 -13 -67 17 -67 17 0 30 18 30 40 0 40 -21 52 -47
        27z"/>
        <path d="M2860 1322 c0 -25 13 -42 31 -42 19 0 29 14 25 33 -9 51 -56 57 -56
        9z"/>
        <path d="M760 1130 c-35 -43 -9 -94 45 -86 51 7 72 73 32 98 -38 24 -49 22
        -77 -12z"/>
        <path d="M2264 1129 c-53 -38 -57 -111 -7 -156 48 -44 94 -42 143 7 96 96 -23
        227 -136 149z"/>
        <path d="M2767 1130 c-17 -46 7 -90 50 -90 48 0 72 55 41 93 -30 36 -76 35
        -91 -3z"/>
        <path d="M369 971 c-127 -127 33 -340 182 -242 101 66 103 191 6 259 -65 46
        -131 40 -188 -17z"/>
        <path d="M911 889 c-85 -86 19 -226 119 -161 54 36 68 126 26 168 -34 34 -107
        30 -145 -7z"/>
        <path d="M1987 888 c-21 -54 46 -104 86 -64 41 41 22 96 -33 96 -23 0 -47 -14
        -53 -32z"/>
        <path d="M2551 889 c-85 -86 19 -226 119 -161 54 36 68 126 26 168 -34 34
        -107 30 -145 -7z"/>
        <path d="M1791 821 c-18 -28 4 -61 42 -61 17 0 27 14 23 33 -7 41 -47 57 -65
        28z"/>
        <path d="M1221 664 c-76 -76 -77 -131 -3 -206 141 -140 354 47 227 200 -62 74
        -154 76 -224 6z"/>
        <path d="M2206 696 c-112 -54 -100 -229 18 -278 119 -49 247 79 198 197 -37
        90 -127 124 -216 81z"/>
        <path d="M1669 587 c-135 -146 11 -370 200 -307 203 67 153 360 -62 360 -70 0
        -99 -11 -138 -53z"/>
        <path d="M651 589 c-72 -72 -16 -176 90 -166 53 6 72 19 87 61 36 103 -99 182
        -177 105z"/>
        <path d="M967 350 c-16 -41 6 -90 40 -90 15 0 39 14 53 30 29 35 -4 90 -53 90
        -16 0 -33 -13 -40 -30z"/>
</g>
</svg>